<svg xmlns="http://www.w3.org/2000/svg" viewBox="0 0 64 64">
  <rect width="64" height="64" rx="14" fill="#0f172a"/>
  <rect x="10" y="10" width="44" height="44" rx="8" fill="#1e293b" stroke="#334155" stroke-width="1"/>
  <rect x="14" y="14" width="36" height="10" rx="3" fill="#0f172a"/>
  <text x="46" y="22.5" text-anchor="end" font-family="ui-monospace,Menlo,monospace" font-size="8" font-weight="700" fill="#22d3ee">15%</text>
  <g fill="#e2e8f0" font-family="ui-monospace,Menlo,monospace" font-size="10" font-weight="700" text-anchor="middle">
    <rect x="14" y="28" width="8" height="8" rx="2" fill="#334155"/><text x="18" y="35">7</text>
    <rect x="24" y="28" width="8" height="8" rx="2" fill="#334155"/><text x="28" y="35">8</text>
    <rect x="34" y="28" width="8" height="8" rx="2" fill="#334155"/><text x="38" y="35">9</text>
    <rect x="44" y="28" width="6" height="8" rx="2" fill="#0ea5e9"/><text x="47" y="35" fill="#fff">÷</text>
    <rect x="14" y="38" width="8" height="8" rx="2" fill="#334155"/><text x="18" y="45">4</text>
    <rect x="24" y="38" width="8" height="8" rx="2" fill="#334155"/><text x="28" y="45">5</text>
    <rect x="34" y="38" width="8" height="8" rx="2" fill="#334155"/><text x="38" y="45">6</text>
    <rect x="44" y="38" width="6" height="8" rx="2" fill="#0ea5e9"/><text x="47" y="45" fill="#fff">×</text>
  </g>
</svg>
